<svg width="230" height="68" viewBox="0 0 230 68" fill="none" xmlns="http://www.w3.org/2000/svg">
<g filter="url(#filter0_d_111_221)">
<path d="M35.7846 1.29752C23.0976 -0.941355 14.9506 10.0043 12.4629 15.757C17.7492 12.9584 29.8143 8.01417 35.7846 10.6262C41.7549 13.2382 41.3818 23.2199 40.4489 27.8842C40.487 27.7232 40.3826 27.9947 40.4489 27.8842C41.6777 29.6688 42.551 31.5844 43.4538 32.8553C43.5384 32.9085 43.6251 32.9617 43.714 33.015C48.938 27.0446 50.244 19.022 50.244 15.757C50.7105 11.87 48.4716 3.5364 35.7846 1.29752Z" fill="#F2F2F2"/>
<path d="M46.0654 49.0435C44.6613 48.9414 43.334 48.6034 42.2836 47.904C40.2308 49.5011 34.5573 52.437 31.5867 50.7395C28.3217 48.8737 25.0566 45.1423 25.0566 43.2765C25.0566 41.4108 26.9224 37.6793 29.2545 38.6122C31.1203 39.3585 35.2709 38.9231 36.6702 38.6122L34.3853 35.8136C31.2757 32.8595 23.3775 28.8171 18.5266 36.28C13.6757 43.743 18.993 51.5169 22.258 54.4709C24.9012 57.425 33.1726 61.9339 45.1133 56.3367C49.591 54.4709 52.7317 49.6511 53.5091 47.9409C51.7893 48.2275 48.4055 49.4118 46.0654 49.0435Z" fill="#F2F2F2"/>
<path d="M34.3853 35.8136C35.6291 37.0574 38.5832 40.7578 40.4489 45.6087C40.8389 46.6227 41.4803 47.3691 42.2836 47.904C42.4871 47.7457 42.6549 47.6006 42.7811 47.4744C43.3565 48.3375 44.5973 48.8124 46.0654 49.0435C48.7241 49.2368 51.6581 48.5847 53.5091 47.9409L55.3304 39.7447C56.2756 39.7447 55.0148 39.6437 55.3304 39.7447C50.7682 39.7447 47.5717 38.6526 43.4538 32.8553C40.2877 28.2933 41.0766 27.8842 40.4489 27.8842C39.1786 26.0393 37.5393 24.3064 35.7846 21.8206C21.9333 7.96925 7.22585 30.9282 5.19327 32.8838C7.81867 31.1223 14.3091 27.5765 20.8587 26.4849C27.5754 23.8729 32.675 31.6157 34.3853 35.8136Z" fill="#3DD5F3"/>
<path d="M49.7776 39.0949C52.2652 33.4977 58.9197 22.1937 63.7706 23.6863C60.0391 32.6418 59.1063 34.8942 59.1063 34.5832C56.7741 39.4164 54.6285 41.3338 49.7776 39.0949Z" fill="#FFB347"/>
<path d="M70.7671 16.2234L80.0958 47.008H86.1594L92.223 25.5521L98.7531 47.008H104.35L113.679 16.2234H107.149L101.552 39.5451L94.5552 16.2234H89.8909L83.3608 39.5451L76.8307 16.2234H70.7671Z" fill="#3DD5F3"/>
<path fill-rule="evenodd" clip-rule="evenodd" d="M118.343 37.2129H134.668C134.824 32.704 132.803 23.6863 123.474 23.6863C114.145 23.6863 112.435 32.704 112.746 37.2129C113.057 40.4779 115.638 47.008 123.474 47.008C131.31 47.008 133.269 43.8984 133.269 42.3437L130.004 40.4779C126.895 42.909 120.209 45.6594 118.343 37.2129ZM129.538 32.5486H118.343C118.343 31.3047 119.369 28.7238 123.474 28.3507C127.579 27.9775 129.227 30.9938 129.538 32.5486Z" fill="#3DD5F3"/>
<path d="M138.4 16.2234V47.008H143.531V34.4143H156.591V29.75H143.531V20.8877H157.524V16.2234H138.4Z" fill="#3DD5F3"/>
<path d="M161.255 15.757V47.008H166.386V15.757H161.255Z" fill="#3DD5F3"/>
<path fill-rule="evenodd" clip-rule="evenodd" d="M169.651 35.3472C170.117 39.2341 173.103 47.008 181.312 47.008C189.521 47.008 192.195 39.2341 192.506 35.3472C192.662 31.4602 190.64 23.6863 181.312 23.6863C171.983 23.6863 169.651 31.4602 169.651 35.3472ZM181.312 42.3437C176.461 42.3437 174.937 37.6793 174.782 35.3472C174.937 32.8595 176.461 27.9775 181.312 28.3507C186.163 28.7238 187.375 33.1705 187.375 35.3472C187.375 37.6793 186.163 42.3437 181.312 42.3437Z" fill="#3DD5F3"/>
<path d="M192.506 24.1528L199.969 47.008H205.1L209.298 32.0821L213.962 47.008H219.093L225.623 24.1528H220.492L216.294 40.0115L211.63 24.1528H206.966L202.768 40.0115L198.103 24.1528H192.506Z" fill="#3DD5F3"/>
<path d="M40.4489 27.8842C41.3818 23.2199 41.7549 13.2382 35.7846 10.6262C29.8143 8.01417 17.7492 12.9584 12.4629 15.757C14.9506 10.0043 23.0976 -0.941355 35.7846 1.29752C48.4716 3.5364 50.7105 11.87 50.244 15.757C50.244 19.022 48.938 27.0446 43.714 33.015C43.6251 32.9617 43.5384 32.9085 43.4538 32.8553M40.4489 27.8842C40.3826 27.9947 40.487 27.7232 40.4489 27.8842ZM40.4489 27.8842C41.6777 29.6688 42.551 31.5844 43.4538 32.8553M40.4489 27.8842C39.1786 26.0393 37.5393 24.3064 35.7846 21.8206C21.9333 7.96925 7.22585 30.9282 5.19327 32.8838M40.4489 27.8842C41.0766 27.8842 40.2877 28.2933 43.4538 32.8553M55.3304 39.7447C50.7682 39.7447 47.5717 38.6526 43.4538 32.8553M55.3304 39.7447L53.5091 47.9409M55.3304 39.7447C55.0148 39.6437 56.2756 39.7447 55.3304 39.7447ZM55.3304 39.7447C55.9855 39.9544 55.5403 40.3743 55.3304 39.7447ZM53.5091 47.9409C52.7317 49.6511 49.591 54.4709 45.1133 56.3367C33.1726 61.9339 24.9012 57.425 22.258 54.4709C18.993 51.5169 13.6757 43.743 18.5266 36.28C23.3775 28.8171 31.2757 32.8595 34.3853 35.8136M53.5091 47.9409C51.7893 48.2275 48.4055 49.4118 46.0654 49.0435M53.5091 47.9409C51.6581 48.5847 48.7241 49.2368 46.0654 49.0435M34.3853 35.8136C35.6291 37.0574 38.5832 40.7578 40.4489 45.6087C40.8389 46.6227 41.4803 47.3691 42.2836 47.904M34.3853 35.8136C32.675 31.6157 27.5754 23.8729 20.8587 26.4849C14.3091 27.5765 7.81867 31.1223 5.19327 32.8838M34.3853 35.8136L36.6702 38.6122C35.2709 38.9231 31.1203 39.3585 29.2545 38.6122C26.9224 37.6793 25.0566 41.4108 25.0566 43.2765C25.0566 45.1423 28.3217 48.8737 31.5867 50.7395C34.5573 52.437 40.2308 49.5011 42.2836 47.904M46.0654 49.0435C44.6613 48.9414 43.334 48.6034 42.2836 47.904M46.0654 49.0435C44.5973 48.8124 43.3565 48.3375 42.7811 47.4744C42.6549 47.6006 42.4871 47.7457 42.2836 47.904M5.19327 32.8838C5.12631 32.9287 5.06187 32.9725 5 33.015C5.03923 33.015 5.10404 32.9696 5.19327 32.8838ZM49.7776 39.0949C52.2652 33.4977 58.9197 22.1937 63.7706 23.6863C60.0391 32.6418 59.1063 34.8942 59.1063 34.5832C56.7741 39.4164 54.6285 41.3338 49.7776 39.0949ZM70.7671 16.2234L80.0958 47.008H86.1594L92.223 25.5521L98.7531 47.008H104.35L113.679 16.2234H107.149L101.552 39.5451L94.5552 16.2234H89.8909L83.3608 39.5451L76.8307 16.2234H70.7671ZM118.343 32.5486H129.538C129.227 30.9938 127.579 27.9775 123.474 28.3507C119.369 28.7238 118.343 31.3047 118.343 32.5486ZM118.343 37.2129H134.668C134.824 32.704 132.803 23.6863 123.474 23.6863C114.145 23.6863 112.435 32.704 112.746 37.2129C113.057 40.4779 115.638 47.008 123.474 47.008C131.31 47.008 133.269 43.8984 133.269 42.3437L130.004 40.4779C126.895 42.909 120.209 45.6594 118.343 37.2129ZM138.4 16.2234V47.008H143.531V34.4143H156.591V29.75H143.531V20.8877H157.524V16.2234H138.4ZM161.255 15.757V47.008H166.386V15.757H161.255ZM169.651 35.3472C170.117 39.2341 173.103 47.008 181.312 47.008C189.521 47.008 192.195 39.2341 192.506 35.3472C192.662 31.4602 190.64 23.6863 181.312 23.6863C171.983 23.6863 169.651 31.4602 169.651 35.3472ZM174.782 35.3472C174.937 37.6793 176.461 42.3437 181.312 42.3437C186.163 42.3437 187.375 37.6793 187.375 35.3472C187.375 33.1705 186.163 28.7238 181.312 28.3507C176.461 27.9775 174.937 32.8595 174.782 35.3472ZM192.506 24.1528L199.969 47.008H205.1L209.298 32.0821L213.962 47.008H219.093L225.623 24.1528H220.492L216.294 40.0115L211.63 24.1528H206.966L202.768 40.0115L198.103 24.1528H192.506Z" stroke="white" stroke-width="0.5"/>
</g>
<defs>
<filter id="filter0_d_111_221" x="0.195068" y="0.749939" width="229.759" height="66.5001" filterUnits="userSpaceOnUse" color-interpolation-filters="sRGB">
<feFlood flood-opacity="0" result="BackgroundImageFix"/>
<feColorMatrix in="SourceAlpha" type="matrix" values="0 0 0 0 0 0 0 0 0 0 0 0 0 0 0 0 0 0 127 0" result="hardAlpha"/>
<feOffset dy="4"/>
<feGaussianBlur stdDeviation="2"/>
<feComposite in2="hardAlpha" operator="out"/>
<feColorMatrix type="matrix" values="0 0 0 0 0 0 0 0 0 0 0 0 0 0 0 0 0 0 0.25 0"/>
<feBlend mode="normal" in2="BackgroundImageFix" result="effect1_dropShadow_111_221"/>
<feBlend mode="normal" in="SourceGraphic" in2="effect1_dropShadow_111_221" result="shape"/>
</filter>
</defs>
</svg>
